<svg width="147" height="73" viewBox="0 0 147 73" fill="none" xmlns="http://www.w3.org/2000/svg">
<path d="M131.036 16.1988C127.411 16.1988 125.092 13.1487 125.092 8.3365C125.092 3.52424 127.636 0.248297 131.329 0.248297C134.887 0.248297 137.251 3.45647 137.251 8.15576C137.251 12.855 134.729 16.1988 131.036 16.1988ZM131.329 14.6173C133.378 14.6173 134.729 12.471 134.729 8.65279C134.729 4.51832 133.198 1.82979 131.014 1.82979C128.965 1.82979 127.614 4.17943 127.614 7.83946C127.614 11.748 129.077 14.6173 131.329 14.6173Z" fill="currentColor"/>
<path d="M114.148 15.9729C114.013 15.9729 113.945 15.9051 113.945 15.7696V14.9562C113.945 14.8207 114.013 14.7529 114.148 14.7529H116.603C116.783 14.7529 116.873 14.7077 116.985 14.5948L117.391 14.2333C117.548 14.0977 117.593 13.9622 117.593 13.8266V2.6206C117.593 2.48505 117.548 2.34949 117.391 2.21393L116.985 1.85245C116.873 1.73948 116.783 1.6943 116.603 1.6943H114.148C114.013 1.6943 113.945 1.62652 113.945 1.49097V0.677626C113.945 0.54207 114.013 0.474291 114.148 0.474291H123.47C123.606 0.474291 123.673 0.54207 123.673 0.677626V1.49097C123.673 1.62652 123.606 1.6943 123.47 1.6943H121.016C120.836 1.6943 120.746 1.73948 120.633 1.85245L120.228 2.21393C120.07 2.34949 120.025 2.48505 120.025 2.6206V13.8266C120.025 13.9622 120.07 14.0977 120.228 14.2333L120.633 14.5948C120.746 14.7077 120.836 14.7529 121.016 14.7529H123.47C123.606 14.7529 123.673 14.8207 123.673 14.9562V15.7696C123.673 15.9051 123.606 15.9729 123.47 15.9729H114.148Z" fill="currentColor"/>
<path d="M100.564 15.9729C100.429 15.9729 100.362 15.9051 100.362 15.7696V14.9562C100.362 14.8207 100.429 14.7529 100.564 14.7529H101.217C101.397 14.7529 101.487 14.7077 101.6 14.5948L102.005 14.2333C102.163 14.0977 102.208 13.9622 102.208 13.804V2.6206C102.208 2.48505 102.163 2.34949 102.005 2.21393L101.6 1.85245C101.487 1.73948 101.397 1.6943 101.217 1.6943H100.564C100.429 1.6943 100.362 1.62652 100.362 1.49097V0.677626C100.362 0.54207 100.429 0.474291 100.564 0.474291H105.698C109.954 0.474291 112.656 3.5695 112.656 8.08804C112.656 12.4484 109.887 15.9729 105.676 15.9729H100.564ZM105.676 14.6625C108.4 14.6625 110.044 12.0644 110.044 8.11064C110.044 4.02135 108.13 1.78467 105.743 1.78467C105.383 1.78467 105.068 1.82986 104.865 1.87504C104.64 1.92023 104.55 2.05578 104.55 2.3269V14.4592C104.55 14.5948 104.617 14.6625 104.73 14.6625H105.676Z" fill="currentColor"/>
<path d="M92.7154 16.1988C90.1259 16.1988 88.1217 14.7077 88.1217 11.2736V2.6206C88.1217 2.48505 88.0767 2.34949 87.9416 2.23653L87.5138 1.85245C87.4012 1.73948 87.3111 1.6943 87.1084 1.6943H86.7256C86.5905 1.6943 86.523 1.62652 86.523 1.49097V0.677626C86.523 0.54207 86.5905 0.474291 86.7256 0.474291H92.2651C92.4002 0.474291 92.4677 0.54207 92.4677 0.677626V1.49097C92.4677 1.62652 92.4002 1.6943 92.2651 1.6943H91.4544C91.2743 1.6943 91.1842 1.76208 91.0716 1.85245L90.6663 2.21393C90.5086 2.37208 90.4636 2.46245 90.4636 2.6206V11.251C90.4636 13.5781 91.567 14.4366 93.1208 14.4366C94.9672 14.4366 95.8679 13.2844 95.8679 11.1381V2.64319C95.8679 2.48505 95.8229 2.39468 95.6427 2.21393L95.2825 1.87504C95.1474 1.73948 95.0348 1.6943 94.8321 1.6943H94.0665C93.9314 1.6943 93.8638 1.62652 93.8638 1.49097V0.677626C93.8638 0.54207 93.9314 0.474291 94.0665 0.474291H98.9529C99.088 0.474291 99.1555 0.54207 99.1555 0.677626V1.49097C99.1555 1.62652 99.088 1.6943 98.9529 1.6943H98.48C98.2999 1.6943 98.2098 1.73948 98.0972 1.85245L97.6919 2.21393C97.5342 2.34949 97.4892 2.48505 97.4892 2.64319V11.1381C97.4892 14.1655 95.6878 16.1988 92.7154 16.1988Z" fill="currentColor"/>
<path d="M75.7902 15.9732C75.6551 15.9732 75.5876 15.9054 75.5876 15.7698V14.9113C75.5876 14.7757 75.6551 14.708 75.7902 14.708H77.1638C77.344 14.708 77.434 14.6628 77.5466 14.5498L77.9519 14.1883C78.1096 14.0528 78.1546 13.9172 78.1546 13.7591V1.98825C78.1546 1.85269 78.0871 1.78491 77.9519 1.78491H76.1955C75.8803 1.78491 75.7677 1.8075 75.565 1.96565L75.1822 2.25936C75.0021 2.39492 74.9345 2.50788 74.8895 2.77899L74.6868 4.33789C74.6643 4.51863 74.6193 4.56382 74.4617 4.56382H73.4033C73.2682 4.56382 73.2006 4.51863 73.2232 4.3153L73.5835 0.20342C73.606 0.0678627 73.6735 8.53813e-05 73.8312 8.53813e-05H74.6418C74.7769 8.53813e-05 74.8219 0.0226778 74.8895 0.135641L75.0021 0.338976C75.0471 0.429347 75.0922 0.474532 75.2048 0.474532H83.4463C83.5589 0.474532 83.604 0.429347 83.649 0.338976L83.7616 0.135641C83.8291 0.0226778 83.8742 8.53813e-05 84.0093 8.53813e-05H84.8199C84.9775 8.53813e-05 85.0451 0.0678627 85.0676 0.20342L85.4279 4.3153C85.4504 4.51863 85.3829 4.56382 85.2478 4.56382H84.1894C84.0318 4.56382 83.9868 4.51863 83.9642 4.33789L83.7616 2.77899C83.7165 2.50788 83.649 2.39492 83.4688 2.25936L83.086 1.96565C82.8834 1.8075 82.7708 1.78491 82.4555 1.78491H80.6991C80.564 1.78491 80.4965 1.85269 80.4965 1.98825V13.7591C80.4965 13.9172 80.5415 14.0528 80.6991 14.1883L81.1045 14.5498C81.217 14.6628 81.3071 14.708 81.4873 14.708H82.8609C82.996 14.708 83.0635 14.7757 83.0635 14.9113V15.7698C83.0635 15.9054 82.996 15.9732 82.8609 15.9732H75.7902Z" fill="currentColor"/>
<path d="M61.4972 16.1988C61.3621 16.1988 61.2945 16.1536 61.2945 16.018L60.9567 11.6124C60.9342 11.4317 61.0243 11.3865 61.1369 11.3865H62.1727C62.3078 11.3865 62.3528 11.4543 62.3754 11.5447L62.7131 13.1713C62.7807 13.4425 62.8257 13.5328 63.0059 13.6684C63.6589 14.2106 64.8749 14.6851 66.4061 14.6851C68.4552 14.6851 69.7162 13.7362 69.7162 12.3128C69.7162 11.251 69.1758 10.5732 68.0049 10.1439L64.2444 8.74317C62.2853 8.0202 61.1819 6.64204 61.1819 4.74425C61.1819 1.60386 63.8165 0.248297 66.0908 0.248297C67.4419 0.248297 68.2075 0.496816 68.793 0.76793C68.9506 0.835708 69.0407 0.835708 69.1533 0.76793L69.8964 0.36126C70.054 0.270889 70.099 0.248297 70.3017 0.248297H70.8871C71.0448 0.248297 71.1348 0.316075 71.1348 0.451631L71.4726 4.76684C71.4951 4.97018 71.4276 5.03796 71.2925 5.03796H70.2567C70.1441 5.03796 70.054 4.99277 70.0315 4.83462L69.7162 3.14017C69.6712 2.91424 69.6262 2.80128 69.446 2.64313C68.7705 2.1009 67.9598 1.71682 66.5637 1.71682C64.7398 1.71682 63.3662 2.64313 63.3662 4.24721C63.3662 5.2187 63.794 5.94167 65.1676 6.41611L68.793 7.68131C70.5944 8.3139 72.013 9.51132 72.013 11.635C72.013 14.3236 69.8964 16.1988 66.6988 16.1988C65.3703 16.1988 64.1768 15.7469 63.7039 15.521C63.5463 15.4532 63.4337 15.4532 63.2986 15.5436L62.5555 16.0632C62.4204 16.1536 62.3303 16.1988 62.1277 16.1988H61.4972Z" fill="currentColor"/>
<path d="M63.6993 51.5672C63.5642 51.5672 63.5191 51.5446 63.4516 51.4316L63.339 51.2283C63.2714 51.1153 63.2039 51.0927 63.0688 51.0927H53.4987C53.3635 51.0927 53.296 51.025 53.296 50.8894V50.0761C53.296 49.9405 53.3635 49.8727 53.4987 49.8727H54.1967C54.3769 49.8727 54.4669 49.8276 54.5795 49.7146L54.9848 49.3531C55.1425 49.2176 55.1875 49.082 55.1875 48.9464V37.7404C55.1875 37.6049 55.1425 37.4693 54.9848 37.3338L54.5795 36.9723C54.4669 36.8593 54.3769 36.8141 54.1967 36.8141H53.4987C53.3635 36.8141 53.296 36.7464 53.296 36.6108V35.7975C53.296 35.6619 53.3635 35.5941 53.4987 35.5941H62.6409C62.7986 35.5941 62.8661 35.5489 62.9337 35.4134L63.0237 35.2552C63.0688 35.1649 63.1363 35.1197 63.2489 35.1197H64.0371C64.2172 35.1197 64.2848 35.1649 64.3073 35.3456L64.645 39.1864C64.6676 39.3897 64.5775 39.4349 64.4649 39.4349H63.4741C63.294 39.4349 63.2264 39.3897 63.2039 39.1864L63.0463 37.9212C63.0237 37.6953 63.0012 37.6049 62.7761 37.4241L62.3482 37.0853C62.1455 36.9271 62.0555 36.9045 61.7177 36.9045H57.732C57.5969 36.9045 57.5294 36.9723 57.5294 37.1078V42.5301C57.5294 42.6657 57.5969 42.7334 57.732 42.7334H59.4434C59.6686 42.7334 59.7361 42.6882 59.8712 42.5301L60.254 42.0782C60.3666 41.9653 60.3891 41.8975 60.3891 41.6942V40.813C60.3891 40.6775 60.4567 40.6097 60.5918 40.6097H61.4925C61.6276 40.6097 61.6952 40.6775 61.6952 40.813V45.9642C61.6952 46.0998 61.6276 46.1675 61.4925 46.1675H60.5918C60.4567 46.1675 60.3891 46.0998 60.3891 45.9642V45.0605C60.3891 44.8797 60.3441 44.812 60.2315 44.6764L59.8712 44.2697C59.7136 44.089 59.6235 44.0438 59.3758 44.0438H57.732C57.5969 44.0438 57.5294 44.1116 57.5294 44.2471V48.7883C57.5294 48.969 57.5969 49.1046 57.7545 49.2627L58.1374 49.6016C58.2725 49.7372 58.4076 49.7824 58.5877 49.7824H62.0104C62.3932 49.7824 62.5509 49.7146 62.7535 49.5564L63.0913 49.2853C63.294 49.1272 63.384 49.0142 63.4066 48.7883L63.6993 46.7323C63.7218 46.529 63.7894 46.4612 63.992 46.4612H65.0053C65.163 46.4612 65.2305 46.529 65.208 46.6872L64.7351 51.3413C64.7126 51.522 64.645 51.5672 64.4874 51.5672H63.6993Z" fill="currentColor"/>
<path d="M40.6504 51.3184C40.5153 51.3184 40.4477 51.2732 40.4477 51.1376L40.1099 46.732C40.0874 46.5513 40.1775 46.5061 40.2901 46.5061H41.3259C41.461 46.5061 41.506 46.5739 41.5286 46.6643L41.8663 48.2909C41.9339 48.5621 41.9789 48.6524 42.1591 48.788C42.8121 49.3302 44.0281 49.8047 45.5593 49.8047C47.6084 49.8047 48.8694 48.8558 48.8694 47.4324C48.8694 46.3706 48.329 45.6928 47.1581 45.2635L43.3976 43.8628C41.4385 43.1398 40.3351 41.7616 40.3351 39.8638C40.3351 36.7235 42.9697 35.3679 45.244 35.3679C46.5951 35.3679 47.3607 35.6164 47.9462 35.8875C48.1038 35.9553 48.1939 35.9553 48.3065 35.8875L49.0496 35.4809C49.2072 35.3905 49.2522 35.3679 49.4549 35.3679H50.0403C50.198 35.3679 50.288 35.4357 50.288 35.5712L50.6258 39.8864C50.6483 40.0898 50.5808 40.1576 50.4457 40.1576H49.4098C49.2973 40.1576 49.2072 40.1124 49.1847 39.9542L48.8694 38.2598C48.8244 38.0338 48.7793 37.9209 48.5992 37.7627C47.9237 37.2205 47.113 36.8364 45.7169 36.8364C43.8929 36.8364 42.5194 37.7627 42.5194 39.3668C42.5194 40.3383 42.9472 41.0613 44.3208 41.5357L47.9462 42.8009C49.7476 43.4335 51.1662 44.6309 51.1662 46.7546C51.1662 49.4432 49.0496 51.3184 45.852 51.3184C44.5234 51.3184 43.33 50.8665 42.8571 50.6406C42.6995 50.5728 42.5869 50.5728 42.4518 50.6632L41.7087 51.1828C41.5736 51.2732 41.4835 51.3184 41.2809 51.3184H40.6504Z" fill="currentColor"/>
<path d="M26.1346 51.0925C25.9995 51.0925 25.9319 51.0247 25.9319 50.8892V50.0758C25.9319 49.9403 25.9995 49.8725 26.1346 49.8725H26.8327C27.0128 49.8725 27.1029 49.8273 27.2155 49.7143L27.6208 49.3529C27.7784 49.2173 27.8235 49.0818 27.8235 48.9236V38.4632C27.8235 38.2146 27.7784 38.0791 27.6658 37.8758L26.4724 35.865C26.4048 35.7294 26.3823 35.5939 26.585 35.5939H28.7692C28.9719 35.5939 29.0394 35.6391 29.1295 35.7972L34.7139 45.851C34.8265 46.0543 35.0067 45.964 35.0067 45.7832V37.7628C35.0067 37.6046 34.9616 37.5143 34.7815 37.3335L34.4212 36.9946C34.2861 36.8591 34.1735 36.8139 33.9709 36.8139H32.935C32.7999 36.8139 32.7324 36.7461 32.7324 36.6106V35.7972C32.7324 35.6617 32.7999 35.5939 32.935 35.5939H38.2042C38.3393 35.5939 38.4069 35.6617 38.4069 35.7972V36.6106C38.4069 36.7461 38.3393 36.8139 38.2042 36.8139H37.5062C37.326 36.8139 37.236 36.8591 37.1234 36.972L36.718 37.3335C36.5604 37.4691 36.5154 37.6046 36.5154 37.7628V50.8892C36.5154 51.0247 36.4478 51.0925 36.3127 51.0925H35.4796C35.3444 51.0925 35.2093 51.0473 35.1193 50.8892L29.5799 40.9258C29.4898 40.7676 29.3322 40.8354 29.3322 41.0161V48.901C29.3322 49.0592 29.3772 49.1721 29.5573 49.3529L29.9176 49.6918C30.0527 49.8273 30.1653 49.8725 30.368 49.8725H31.4038C31.5389 49.8725 31.6065 49.9403 31.6065 50.0758V50.8892C31.6065 51.0247 31.5389 51.0925 31.4038 51.0925H26.1346Z" fill="currentColor"/>
<path d="M14.4335 51.0925C14.2984 51.0925 14.2308 51.0247 14.2308 50.8892V50.0758C14.2308 49.9403 14.2984 49.8725 14.4335 49.8725H16.888C17.0681 49.8725 17.1582 49.8273 17.2708 49.7143L17.6761 49.3529C17.8337 49.2173 17.8788 49.0818 17.8788 48.9462V37.7402C17.8788 37.6046 17.8337 37.4691 17.6761 37.3335L17.2708 36.972C17.1582 36.8591 17.0681 36.8139 16.888 36.8139H14.4335C14.2984 36.8139 14.2308 36.7461 14.2308 36.6106V35.7972C14.2308 35.6617 14.2984 35.5939 14.4335 35.5939H23.7559C23.8911 35.5939 23.9586 35.6617 23.9586 35.7972V36.6106C23.9586 36.7461 23.8911 36.8139 23.7559 36.8139H21.3015C21.1213 36.8139 21.0313 36.8591 20.9187 36.972L20.5134 37.3335C20.3557 37.4691 20.3107 37.6046 20.3107 37.7402V48.9462C20.3107 49.0818 20.3557 49.2173 20.5134 49.3529L20.9187 49.7143C21.0313 49.8273 21.1213 49.8725 21.3015 49.8725H23.7559C23.8911 49.8725 23.9586 49.9403 23.9586 50.0758V50.8892C23.9586 51.0247 23.8911 51.0925 23.7559 51.0925H14.4335Z" fill="currentColor"/>
<path d="M11.0113 51.567C10.8762 51.567 10.8311 51.5444 10.7636 51.4314L10.651 51.2281C10.5834 51.1151 10.5159 51.0925 10.3808 51.0925H0.517912C0.382804 51.0925 0.31525 51.0248 0.31525 50.8892V50.0759C0.31525 49.9403 0.382804 49.8725 0.517912 49.8725H1.89151C2.07165 49.8725 2.16172 49.8273 2.27431 49.7144L2.67964 49.3529C2.83726 49.2173 2.8823 49.0818 2.8823 48.9462V37.7402C2.8823 37.6047 2.83726 37.4691 2.67964 37.3336L2.27431 36.9721C2.16172 36.8591 2.07165 36.8139 1.89151 36.8139H0.517912C0.382804 36.8139 0.31525 36.7461 0.31525 36.6106V35.7972C0.31525 35.6617 0.382804 35.5939 0.517912 35.5939H7.58855C7.72366 35.5939 7.79121 35.6617 7.79121 35.7972V36.6106C7.79121 36.7461 7.72366 36.8139 7.58855 36.8139H6.21496C6.03481 36.8139 5.94474 36.8591 5.83215 36.9721L5.42683 37.3336C5.2692 37.4691 5.22417 37.6047 5.22417 37.7402V48.7881C5.22417 48.9688 5.29172 49.1044 5.44935 49.2625L5.83215 49.6014C5.96726 49.737 6.10237 49.7822 6.28251 49.7822H9.32243C9.70524 49.7822 9.86287 49.7144 10.0655 49.5562L10.4033 49.2851C10.606 49.127 10.696 49.014 10.7185 48.7881L11.0113 46.7321C11.0338 46.5288 11.1014 46.461 11.304 46.461H12.3173C12.4749 46.461 12.5425 46.5288 12.52 46.6869L12.0471 51.341C12.0246 51.5218 11.957 51.567 11.7994 51.567H11.0113Z" fill="currentColor"/>
<path d="M137.235 72.3262C137.1 72.3262 137.032 72.2584 137.032 72.1228V71.2643C137.032 71.1287 137.1 71.061 137.235 71.061H138.608C138.788 71.061 138.878 71.0158 138.991 70.9028L139.396 70.5413C139.554 70.4058 139.599 70.2702 139.599 70.1121V58.3412C139.599 58.2056 139.532 58.1379 139.396 58.1379H137.64C137.325 58.1379 137.212 58.1605 137.01 58.3186L136.627 58.6123C136.447 58.7479 136.379 58.8608 136.334 59.132L136.131 60.6908C136.109 60.8716 136.064 60.9168 135.906 60.9168H134.848C134.713 60.9168 134.645 60.8716 134.668 60.6683L135.028 56.5564C135.05 56.4208 135.118 56.353 135.276 56.353H136.086C136.221 56.353 136.266 56.3756 136.334 56.4886L136.447 56.6919C136.492 56.7823 136.537 56.8275 136.649 56.8275H144.891C145.003 56.8275 145.048 56.7823 145.093 56.6919L145.206 56.4886C145.274 56.3756 145.319 56.353 145.454 56.353H146.264C146.422 56.353 146.49 56.4208 146.512 56.5564L146.872 60.6683C146.895 60.8716 146.827 60.9168 146.692 60.9168H145.634C145.476 60.9168 145.431 60.8716 145.409 60.6908L145.206 59.132C145.161 58.8608 145.093 58.7479 144.913 58.6123L144.531 58.3186C144.328 58.1605 144.215 58.1379 143.9 58.1379H142.144C142.008 58.1379 141.941 58.2056 141.941 58.3412V70.1121C141.941 70.2702 141.986 70.4058 142.144 70.5413L142.549 70.9028C142.662 71.0158 142.752 71.061 142.932 71.061H144.305C144.44 71.061 144.508 71.1287 144.508 71.2643V72.1228C144.508 72.2584 144.44 72.3262 144.305 72.3262H137.235Z" fill="currentColor"/>
<path d="M122.292 72.5521C122.156 72.5521 122.089 72.5069 122.089 72.3713L121.751 67.9658C121.729 67.785 121.819 67.7398 121.931 67.7398H122.967C123.102 67.7398 123.147 67.8076 123.17 67.898L123.508 69.5247C123.575 69.7958 123.62 69.8861 123.8 70.0217C124.453 70.5639 125.669 71.0384 127.2 71.0384C129.25 71.0384 130.511 70.0895 130.511 68.6661C130.511 67.6043 129.97 66.9265 128.799 66.4972L125.039 65.0965C123.08 64.3735 121.976 62.9953 121.976 61.0975C121.976 57.9571 124.611 56.6016 126.885 56.6016C128.236 56.6016 129.002 56.8501 129.587 57.1212C129.745 57.189 129.835 57.189 129.948 57.1212L130.691 56.7145C130.848 56.6242 130.893 56.6016 131.096 56.6016H131.682C131.839 56.6016 131.929 56.6693 131.929 56.8049L132.267 61.1201C132.29 61.3235 132.222 61.3912 132.087 61.3912H131.051C130.938 61.3912 130.848 61.346 130.826 61.1879L130.511 59.4934C130.466 59.2675 130.421 59.1545 130.24 58.9964C129.565 58.4542 128.754 58.0701 127.358 58.0701C125.534 58.0701 124.161 58.9964 124.161 60.6005C124.161 61.572 124.588 62.2949 125.962 62.7694L129.587 64.0346C131.389 64.6672 132.807 65.8646 132.807 67.9883C132.807 70.6769 130.691 72.5521 127.493 72.5521C126.165 72.5521 124.971 72.1002 124.498 71.8743C124.341 71.8065 124.228 71.8065 124.093 71.8969L123.35 72.4165C123.215 72.5069 123.125 72.5521 122.922 72.5521H122.292Z" fill="currentColor"/>
<path d="M107.731 72.3262C107.596 72.3262 107.529 72.2584 107.529 72.1228V71.3095C107.529 71.1739 107.596 71.1061 107.731 71.1061H108.429C108.609 71.1061 108.699 71.061 108.812 70.948L109.217 70.5865C109.375 70.451 109.42 70.3154 109.42 70.1573V58.9738C109.42 58.8382 109.375 58.7027 109.217 58.5671L108.812 58.2056C108.699 58.0927 108.609 58.0475 108.429 58.0475H107.731C107.596 58.0475 107.529 57.9797 107.529 57.8216V57.0308C107.529 56.8953 107.596 56.8275 107.731 56.8275H113.248C116.558 56.8275 119.058 58.1605 119.058 60.962C119.058 62.9049 117.662 64.3058 115.635 64.8932C115.477 64.9384 115.432 65.0739 115.545 65.2321L119.148 70.7898C119.305 71.0158 119.441 71.1061 119.733 71.1061H119.868C120.004 71.1061 120.071 71.1739 120.071 71.3095V72.1228C120.071 72.2584 120.004 72.3262 119.868 72.3262H115.072C114.937 72.3262 114.869 72.2584 114.869 72.1228V71.3095C114.869 71.1739 114.937 71.1061 115.072 71.1061H115.635C115.838 71.1061 115.973 71.0384 116.063 70.9028L116.243 70.6543C116.356 70.4961 116.356 70.3832 116.266 70.2476L113.226 65.3902C113.091 65.1869 113 65.0965 112.685 65.0513C112.325 65.0061 112.01 64.9384 111.829 64.8932C111.649 64.848 111.537 64.9158 111.537 65.0739V70.1573C111.537 70.3154 111.604 70.4284 111.762 70.5865L112.145 70.948C112.28 71.061 112.37 71.1061 112.55 71.1061H113.113C113.248 71.1061 113.316 71.1739 113.316 71.3095V72.1228C113.316 72.2584 113.248 72.3262 113.113 72.3262H107.731ZM113.293 63.8538C115.567 63.8538 116.738 62.7242 116.738 60.962C116.738 58.9512 115.252 58.1379 113.293 58.1379C112.73 58.1379 112.235 58.2056 111.897 58.3186C111.627 58.409 111.537 58.5219 111.537 58.7931V63.3116C111.537 63.4923 111.582 63.5827 111.739 63.6279C112.167 63.7635 112.618 63.8538 113.293 63.8538Z" fill="currentColor"/>
<path d="M100.129 72.5521C96.5035 72.5521 94.1842 69.5021 94.1842 64.6898C94.1842 59.8776 96.7287 56.6016 100.422 56.6016C103.979 56.6016 106.344 59.8098 106.344 64.5091C106.344 69.2083 103.822 72.5521 100.129 72.5521ZM100.422 70.9706C102.471 70.9706 103.822 68.8243 103.822 65.0061C103.822 60.8717 102.291 58.1831 100.106 58.1831C98.0573 58.1831 96.7062 60.5327 96.7062 64.1928C96.7062 68.1013 98.1699 70.9706 100.422 70.9706Z" fill="currentColor"/>
<path d="M86.8766 72.3262C86.6965 72.3262 86.6289 72.281 86.5614 72.1002L82.0127 58.3186C81.9452 58.0927 81.8326 58.0475 81.63 58.0475H81.112C80.9769 58.0475 80.9094 57.9797 80.9094 57.8442V57.0308C80.9094 56.8953 80.9769 56.8275 81.112 56.8275H86.4038C86.5389 56.8275 86.6064 56.8953 86.6064 57.0308V57.8442C86.6064 57.9797 86.5389 58.0475 86.4038 58.0475H85.5706C85.3679 58.0475 85.3004 58.0701 85.1653 58.2056L84.85 58.4994C84.7599 58.5897 84.7599 58.6575 84.805 58.8382L87.6422 67.9883C87.6873 68.1239 87.8674 68.1465 87.9125 67.9883L90.7948 58.9286C90.8623 58.7253 90.8623 58.6575 90.7722 58.5445L90.457 58.2056C90.3444 58.0701 90.2093 58.0475 90.0291 58.0475H89.2185C89.0834 58.0475 89.0158 57.9797 89.0158 57.8442V57.0308C89.0158 56.8953 89.0834 56.8275 89.2185 56.8275H93.4294C93.5645 56.8275 93.632 56.8953 93.632 57.0308V57.8442C93.632 57.9797 93.5645 58.0475 93.4294 58.0475H93.0015C92.7989 58.0475 92.6637 58.1379 92.5962 58.3186L88.0926 72.1228C88.0476 72.281 87.9575 72.3262 87.7999 72.3262H86.8766Z" fill="currentColor"/>
<path d="M68.2036 72.3261C68.0685 72.3261 68.001 72.2584 68.001 72.1228V71.3095C68.001 71.1739 68.0685 71.1061 68.2036 71.1061H68.9017C69.0818 71.1061 69.1719 71.0609 69.2845 70.948L69.6898 70.5865C69.8474 70.4509 69.8925 70.3154 69.8925 70.1572V58.9738C69.8925 58.8382 69.8474 58.7027 69.6898 58.5671L69.2845 58.2056C69.1719 58.0927 69.0818 58.0475 68.9017 58.0475H68.2036C68.0685 58.0475 68.001 57.9797 68.001 57.8215V57.0308C68.001 56.8952 68.0685 56.8275 68.2036 56.8275H73.7205C77.0307 56.8275 79.5302 58.1604 79.5302 60.9619C79.5302 62.9049 78.1341 64.3057 76.1074 64.8931C75.9498 64.9383 75.9048 65.0739 76.0174 65.232L79.6202 70.7898C79.7779 71.0158 79.913 71.1061 80.2057 71.1061H80.3408C80.4759 71.1061 80.5435 71.1739 80.5435 71.3095V72.1228C80.5435 72.2584 80.4759 72.3261 80.3408 72.3261H75.5445C75.4094 72.3261 75.3418 72.2584 75.3418 72.1228V71.3095C75.3418 71.1739 75.4094 71.1061 75.5445 71.1061H76.1074C76.3101 71.1061 76.4452 71.0383 76.5353 70.9028L76.7154 70.6543C76.828 70.4961 76.828 70.3832 76.7379 70.2476L73.698 65.3902C73.5629 65.1868 73.4728 65.0965 73.1576 65.0513C72.7973 65.0061 72.482 64.9383 72.3019 64.8931C72.1218 64.8479 72.0092 64.9157 72.0092 65.0739V70.1572C72.0092 70.3154 72.0767 70.4283 72.2343 70.5865L72.6171 70.948C72.7523 71.0609 72.8423 71.1061 73.0225 71.1061H73.5854C73.7205 71.1061 73.7881 71.1739 73.7881 71.3095V72.1228C73.7881 72.2584 73.7205 72.3261 73.5854 72.3261H68.2036ZM73.7656 63.8538C76.0399 63.8538 77.2108 62.7242 77.2108 60.9619C77.2108 58.9512 75.7246 58.1378 73.7656 58.1378C73.2026 58.1378 72.7072 58.2056 72.3695 58.3186C72.0992 58.409 72.0092 58.5219 72.0092 58.793V63.3116C72.0092 63.4923 72.0542 63.5827 72.2118 63.6279C72.6397 63.7634 73.09 63.8538 73.7656 63.8538Z" fill="currentColor"/>
<path d="M64.8041 72.8006C64.669 72.8006 64.624 72.778 64.5564 72.665L64.4438 72.4617C64.3763 72.3488 64.3087 72.3262 64.1736 72.3262H54.6035C54.4684 72.3262 54.4008 72.2584 54.4008 72.1228V71.3095C54.4008 71.1739 54.4684 71.1061 54.6035 71.1061H55.3015C55.4817 71.1061 55.5717 71.061 55.6843 70.948L56.0897 70.5865C56.2473 70.451 56.2923 70.3154 56.2923 70.1798V58.9738C56.2923 58.8382 56.2473 58.7027 56.0897 58.5671L55.6843 58.2056C55.5717 58.0927 55.4817 58.0475 55.3015 58.0475H54.6035C54.4684 58.0475 54.4008 57.9797 54.4008 57.8442V57.0308C54.4008 56.8953 54.4684 56.8275 54.6035 56.8275H63.7458C63.9034 56.8275 63.9709 56.7823 64.0385 56.6468L64.1286 56.4886C64.1736 56.3982 64.2412 56.353 64.3537 56.353H65.1419C65.322 56.353 65.3896 56.3982 65.4121 56.579L65.7499 60.4197C65.7724 60.6231 65.6823 60.6683 65.5697 60.6683H64.5789C64.3988 60.6683 64.3312 60.6231 64.3087 60.4197L64.1511 59.1545C64.1286 58.9286 64.1061 58.8382 63.8809 58.6575L63.453 58.3186C63.2504 58.1605 63.1603 58.1379 62.8225 58.1379H58.8368C58.7017 58.1379 58.6342 58.2056 58.6342 58.3412V63.7635C58.6342 63.899 58.7017 63.9668 58.8368 63.9668H60.5482C60.7734 63.9668 60.8409 63.9216 60.9761 63.7635L61.3589 63.3116C61.4714 63.1986 61.494 63.1309 61.494 62.9275V62.0464C61.494 61.9109 61.5615 61.8431 61.6966 61.8431H62.5973C62.7325 61.8431 62.8 61.9109 62.8 62.0464V67.1976C62.8 67.3332 62.7325 67.4009 62.5973 67.4009H61.6966C61.5615 67.4009 61.494 67.3332 61.494 67.1976V66.2939C61.494 66.1132 61.4489 66.0454 61.3363 65.9098L60.9761 65.5032C60.8184 65.3224 60.7284 65.2773 60.4807 65.2773H58.8368C58.7017 65.2773 58.6342 65.345 58.6342 65.4806V70.0217C58.6342 70.2024 58.7017 70.338 58.8594 70.4961L59.2422 70.835C59.3773 70.9706 59.5124 71.0158 59.6925 71.0158H63.1153C63.4981 71.0158 63.6557 70.948 63.8584 70.7898L64.1961 70.5187C64.3988 70.3606 64.4889 70.2476 64.5114 70.0217L64.8041 67.9658C64.8266 67.7624 64.8942 67.6946 65.0968 67.6946H66.1101C66.2678 67.6946 66.3353 67.7624 66.3128 67.9206L65.8399 72.5747C65.8174 72.7554 65.7499 72.8006 65.5922 72.8006H64.8041Z" fill="currentColor"/>
<path d="M47.0949 72.5521C42.9741 72.5521 40.4746 69.2987 40.4746 64.848C40.4746 59.9228 43.6947 56.6016 47.3651 56.6016C48.0857 56.6016 48.6036 56.7145 49.1891 56.8953C49.3917 56.963 49.5268 56.9856 49.752 56.8727L50.1348 56.6919C50.2924 56.6242 50.405 56.6016 50.6077 56.6016H51.1706C51.3283 56.6016 51.4183 56.6468 51.4409 56.8049L51.8462 61.1201C51.8687 61.3235 51.8011 61.3912 51.6435 61.3912H50.6527C50.4951 61.3912 50.4276 61.3234 50.405 61.1879L50.0447 59.0868C49.9997 58.8382 49.8871 58.6575 49.6394 58.5219C49.1891 58.2734 48.6261 58.0701 47.7704 58.0701C44.9557 58.0701 42.9966 60.6457 42.9966 64.6446C42.9966 68.3724 44.5729 71.0836 47.4101 71.0836C48.1758 71.0836 48.6937 70.9932 49.1891 70.8124C49.3917 70.7447 49.4368 70.6769 49.4142 70.4284L49.0314 66.9265C49.0089 66.7683 48.9639 66.7232 48.8063 66.7232H46.8247C46.6896 66.7232 46.622 66.6554 46.622 66.5198V65.6613C46.622 65.5258 46.6896 65.458 46.8247 65.458H52.5893C52.7244 65.458 52.7919 65.5258 52.7919 65.6613V66.5198C52.7919 66.6554 52.7244 66.7232 52.5893 66.7232H52.1389C51.9362 66.7232 51.8687 66.7458 51.7561 66.8587L51.2607 67.3106C51.1256 67.4235 51.1031 67.4913 51.1256 67.6721L51.3057 69.3665C51.3283 69.5247 51.3508 69.5698 51.5084 69.5924L52.1614 69.728C52.3191 69.7506 52.3641 69.841 52.3641 69.9765V70.5865C52.3641 70.6995 52.3416 70.7673 52.229 70.835L51.9137 71.0384C50.4275 71.9873 48.8513 72.5521 47.0949 72.5521Z" fill="currentColor"/>
<path d="M32.9624 72.5521C29.337 72.5521 27.0177 69.5021 27.0177 64.6898C27.0177 59.8776 29.5622 56.6016 33.2551 56.6016C36.813 56.6016 39.1774 59.8098 39.1774 64.5091C39.1774 69.2083 36.6554 72.5521 32.9624 72.5521ZM33.2551 70.9706C35.3043 70.9706 36.6554 68.8243 36.6554 65.0061C36.6554 60.8717 35.1241 58.1831 32.9399 58.1831C30.8908 58.1831 29.5397 60.5327 29.5397 64.1928C29.5397 68.1013 31.0034 70.9706 33.2551 70.9706Z" fill="currentColor"/>
<path d="M19.7169 72.5521C16.0915 72.5521 13.7722 69.5021 13.7722 64.6898C13.7722 59.8776 16.3167 56.6016 20.0097 56.6016C23.5675 56.6016 25.9319 59.8098 25.9319 64.5091C25.9319 69.2084 23.4099 72.5521 19.7169 72.5521ZM20.0097 70.9706C22.0588 70.9706 23.4099 68.8243 23.4099 65.0062C23.4099 60.8717 21.8787 58.1831 19.6944 58.1831C17.6453 58.1831 16.2942 60.5328 16.2942 64.1928C16.2942 68.1013 17.7579 70.9706 20.0097 70.9706Z" fill="currentColor"/>
<path d="M0.202662 72.3262C0.0675539 72.3262 0 72.2584 0 72.1229V71.3095C0 71.174 0.0675539 71.1062 0.202662 71.1062H0.855682C1.03583 71.1062 1.1259 71.061 1.23849 70.948L1.64381 70.5865C1.80144 70.451 1.84647 70.3154 1.84647 70.1573V58.9738C1.84647 58.8383 1.80144 58.7027 1.64381 58.5672L1.23849 58.2057C1.1259 58.0927 1.03583 58.0475 0.855682 58.0475H0.202662C0.0675539 58.0475 0 57.9797 0 57.8442V57.0308C0 56.8953 0.0675539 56.8275 0.202662 56.8275H5.53942C5.67453 56.8275 5.74208 56.8953 5.74208 57.0308V57.8442C5.74208 57.9797 5.67453 58.0475 5.53942 58.0475H4.93143C4.75129 58.0475 4.68374 58.0701 4.54863 58.1831L4.09827 58.5897C3.94064 58.7479 3.91812 58.8383 3.91812 58.9964V63.6731C3.91812 63.8087 3.98568 63.8765 4.12079 63.8765H8.57934C8.71445 63.8765 8.78201 63.8087 8.78201 63.6731V58.9964C8.78201 58.8383 8.75949 58.7479 8.60186 58.5897L8.1515 58.1831C8.01639 58.0701 7.94884 58.0475 7.67862 58.0475H7.16071C7.0256 58.0475 6.95805 57.9797 6.95805 57.8442V57.0308C6.95805 56.8953 7.0256 56.8275 7.16071 56.8275H12.4975C12.6326 56.8275 12.7001 56.8953 12.7001 57.0308V57.8442C12.7001 57.9797 12.6326 58.0475 12.4975 58.0475H11.8444C11.6643 58.0475 11.5742 58.0927 11.4616 58.2057L11.0563 58.5672C10.8987 58.7027 10.8537 58.8383 10.8537 58.9738V70.1573C10.8537 70.3154 10.8987 70.451 11.0563 70.5865L11.4616 70.948C11.5742 71.061 11.6643 71.1062 11.8444 71.1062H12.4975C12.6326 71.1062 12.7001 71.174 12.7001 71.3095V72.1229C12.7001 72.2584 12.6326 72.3262 12.4975 72.3262H7.18323C7.0256 72.3262 6.95805 72.2584 6.95805 72.1229V71.3095C6.95805 71.174 7.0256 71.1062 7.18323 71.1062H7.67862C7.94884 71.1062 8.03891 71.061 8.17402 70.948L8.55683 70.5865C8.71445 70.4284 8.78201 70.3154 8.78201 70.1573V65.4806C8.78201 65.345 8.69193 65.2773 8.55683 65.2773H4.12079C3.98568 65.2773 3.91812 65.345 3.91812 65.4806V70.1573C3.91812 70.3154 3.98568 70.4284 4.1433 70.5865L4.52611 70.948C4.66122 71.061 4.75129 71.1062 4.93143 71.1062H5.5169C5.67453 71.1062 5.74208 71.174 5.74208 71.3095V72.1229C5.74208 72.2584 5.67453 72.3262 5.5169 72.3262H0.202662Z" fill="currentColor"/>
</svg>
