<svg width="178" height="74" viewBox="0 0 178 74" fill="none" xmlns="http://www.w3.org/2000/svg">
<path d="M84.4314 9.24485C84.4314 7.15825 83.7648 5.39044 82.4897 3.91243C81.1855 2.43443 79.5916 1.68093 77.7369 1.68093C75.8242 1.68093 74.2302 2.43443 72.9551 3.91243C71.651 5.39044 71.0134 7.15825 71.0134 9.24485C71.0134 11.3314 71.651 13.0993 72.9551 14.6062C74.2592 16.1132 75.8531 16.8377 77.7369 16.8377C79.5916 16.8377 81.1566 16.1132 82.4607 14.6062C83.7648 13.0993 84.4314 11.3314 84.4314 9.24485ZM86.9817 9.27383C86.9817 11.998 86.0833 14.2005 84.3444 15.9393C82.5766 17.6782 80.3451 18.5186 77.6789 18.5186C75.0127 18.5186 72.8102 17.6782 71.0714 15.9393C69.3325 14.2005 68.4921 11.998 68.4921 9.27383C68.4921 6.60762 69.3615 4.37612 71.1293 2.63729C72.8681 0.89846 75.0996 0.0290461 77.7658 0.0290461C80.4321 0.0290461 82.6346 0.89846 84.3734 2.63729C86.1122 4.37612 86.9817 6.57864 86.9817 9.27383Z" fill="black"/>
<path d="M66.043 18.142H62.6233C62.9421 17.6783 63.116 16.6929 63.116 15.128V3.76764C63.116 2.31861 62.9421 1.18837 62.6233 0.4059H66.043C65.6952 1.10143 65.5503 2.23167 65.5503 3.76764V15.2149C65.5503 16.664 65.6952 17.6203 66.043 18.142Z" fill="black"/>
<path d="M57.7603 9.24496C57.7603 6.98448 57.0937 5.24564 55.7606 3.9705C54.4275 2.72434 52.6307 2.08677 50.3702 2.08677L47.3852 2.05779V15.07C47.3852 15.6207 47.5881 15.9974 48.0228 16.1713C48.4575 16.3742 49.24 16.4611 50.3702 16.4611C52.7466 16.4611 54.5724 15.8525 55.8475 14.6353C57.1227 13.4182 57.7603 11.6214 57.7603 9.24496ZM60.2816 9.24496C60.2816 12.143 59.4411 14.3455 57.7892 15.8525C56.1084 17.3595 53.7609 18.113 50.747 18.113H44.4002C44.748 17.4754 44.9509 16.3742 44.9509 14.7802V3.73866C44.9509 2.28963 44.748 1.15939 44.4002 0.4059H50.689C53.674 0.4059 56.0214 1.21735 57.7313 2.84026C59.4122 4.46317 60.2816 6.60773 60.2816 9.24496Z" fill="black"/>
<path d="M41.7902 18.142H38.8052V16.577C37.4431 17.8522 35.7333 18.4608 33.6757 18.4608C31.647 18.4608 30.0531 17.8812 28.8359 16.6929C27.6188 15.5047 27.0391 13.8818 27.0391 11.8532V3.8256C27.0391 2.37657 26.8363 1.24633 26.4885 0.4059H29.9372C29.6184 1.27531 29.4735 2.43454 29.4735 3.88356V11.5924C29.4735 15.07 31.0095 16.7799 34.1394 16.7799C36.0521 16.7799 37.617 15.9974 38.8052 14.4325V3.8256C38.8052 2.37657 38.6024 1.24633 38.2546 0.4059H41.7612C41.3845 1.21735 41.2106 2.34759 41.2106 3.79662V15.157C41.2106 16.548 41.3845 17.5624 41.7902 18.142Z" fill="black"/>
<path d="M24.6473 0.0289802L25.2269 2.89805C24.7052 2.3764 24.0387 2.0866 23.1982 2.0866H19.1989V14.867C19.1989 16.403 19.3728 17.5042 19.7496 18.1418H16.2139C16.5617 17.4173 16.7646 16.345 16.7646 14.896V2.0866H12.7652C12.2146 2.0866 11.8089 2.14456 11.5481 2.26048C11.2583 2.3764 10.9974 2.57927 10.7366 2.89805L11.2872 0C11.577 0.289805 12.1567 0.405727 12.9681 0.405727H22.9954C23.7489 0.405727 24.2995 0.289805 24.6473 0.0289802Z" fill="black"/>
<path d="M10.2881 13.6789C10.2881 15.0989 9.76643 16.2581 8.7811 17.1565C7.76678 18.0549 6.43367 18.4896 4.78179 18.4896C3.85441 18.4896 2.89805 18.3157 1.94169 17.91C1.13024 17.6202 0.57961 17.7941 0.231844 18.3737V14.3454C1.27514 15.9973 2.75315 16.8088 4.6079 16.8088C5.5063 16.8088 6.25979 16.5479 6.8394 15.9973C7.41901 15.4467 7.7378 14.7222 7.7378 13.8238C7.7378 12.5196 6.95532 11.3894 5.39038 10.4041C5.10057 10.2302 4.63688 9.94038 3.99931 9.53465C3.36174 9.12893 2.95601 8.89708 2.84009 8.81014C0.927376 7.65092 0 6.14393 0 4.34714C0 3.072 0.463688 2.0287 1.44903 1.21725C2.43436 0.434773 3.62256 0.0290461 5.04261 0.0290461C6.02795 0.0290461 6.92634 0.202929 7.76678 0.492733C8.40435 0.753558 8.926 0.666616 9.27376 0.202929V4.05734C8.28843 2.46341 6.92634 1.65195 5.21649 1.65195C4.40504 1.65195 3.70951 1.91278 3.18786 2.40545C2.66621 2.89812 2.40538 3.47773 2.40538 4.17326C2.40538 5.1586 2.89805 5.97005 3.88339 6.57864C4.17319 6.7815 4.69484 7.12927 5.47732 7.59296C6.25979 8.08563 6.81042 8.43339 7.10023 8.60728C9.2158 9.94038 10.2881 11.6213 10.2881 13.6789Z" fill="black"/>
<path d="M86.712 43.8814L86.0454 46.1129H76.279C76.6558 45.5913 76.8586 44.49 76.8586 42.8092V31.7966C76.8586 30.3475 76.6557 29.1883 76.308 28.3769H85.9005V30.5794C85.4079 30.2026 84.5964 29.9998 83.4952 29.9998H79.264V36.0277H83.756C84.4805 36.0277 85.0891 35.9408 85.5528 35.7379V37.9404C85.176 37.7665 84.5674 37.6506 83.756 37.6506H79.264V43.5916C79.264 43.9394 79.3509 44.2002 79.5828 44.3161C79.7857 44.4321 80.1624 44.49 80.684 44.49H84.1037C85.205 44.49 86.0744 44.2872 86.712 43.8814Z" fill="black"/>
<path d="M74.256 41.6498C74.256 43.0699 73.7344 44.2291 72.749 45.1275C71.7347 46.0259 70.4016 46.4606 68.7497 46.4606C67.8224 46.4606 66.866 46.2867 65.9097 45.881C65.0982 45.5912 64.5476 45.7651 64.1998 46.3447V42.3164C65.2431 43.9683 66.7211 44.7797 68.5759 44.7797C69.4742 44.7797 70.2277 44.5189 70.8074 43.9683C71.387 43.4176 71.7057 42.6931 71.7057 41.7947C71.7057 40.4906 70.9233 39.3604 69.3583 38.375C69.0685 38.2011 68.6048 37.9113 67.9673 37.5056C67.3297 37.0999 66.924 36.868 66.808 36.7811C64.8953 35.6219 63.968 34.1149 63.968 32.3181C63.968 31.043 64.4316 29.9997 65.417 29.1882C66.4023 28.4057 67.5905 28 69.0106 28C69.9959 28 70.8943 28.1739 71.7347 28.4637C72.3723 28.7245 72.8939 28.6376 73.2417 28.1739V32.0283C72.2564 30.4344 70.8943 29.6229 69.1844 29.6229C68.373 29.6229 67.6775 29.8837 67.1558 30.3764C66.6342 30.8691 66.3733 31.4487 66.3733 32.1442C66.3733 33.1295 66.866 33.941 67.8513 34.5496C68.1411 34.7525 68.6628 35.1002 69.4453 35.5639C70.2277 36.0566 70.7784 36.4043 71.0682 36.5782C73.1838 37.9113 74.256 39.5922 74.256 41.6498Z" fill="black"/>
<path d="M58.905 28.3478H61.6581C61.2814 29.1882 61.1075 30.3185 61.1075 31.7385V46.0839H60.2381L48.3271 32.1443V43.0989C48.3271 44.49 48.501 45.4753 48.9067 46.0839H46.0956C46.4723 45.5622 46.6752 44.5189 46.6752 43.012V30.2026C46.5303 30.0866 46.3564 29.8838 46.1825 29.594C45.8348 29.1593 45.3421 28.7535 44.7335 28.3768H48.2981L59.4266 41.418V31.7675C59.4266 30.3185 59.2527 29.1882 58.905 28.3478Z" fill="black"/>
<path d="M43.2988 46.1129H39.8791C40.1979 45.6492 40.3718 44.6639 40.3718 43.099V31.7386C40.3718 30.2896 40.1979 29.1593 39.8791 28.3769H43.2988C42.951 29.0724 42.8061 30.2026 42.8061 31.7386V43.1859C42.8061 44.6349 42.951 45.5913 43.2988 46.1129Z" fill="black"/>
<path d="M38.462 43.7945L37.7664 46.1129H28C28.3767 45.5913 28.5796 44.49 28.5796 42.8092V31.7966C28.5796 30.3475 28.3767 29.1883 28.029 28.3769H31.5356C31.1589 29.1593 30.985 30.2896 30.985 31.7676V43.4177C30.985 43.8524 31.0719 44.1133 31.2748 44.2292C31.4487 44.3451 31.8254 44.4031 32.405 44.4031H35.8247C36.984 44.4031 37.8534 44.2002 38.462 43.7945Z" fill="black"/>
<path d="M177.211 55.029L177.791 57.8981C177.269 57.3764 176.603 57.0866 175.762 57.0866H171.763V69.867C171.763 71.403 171.937 72.5042 172.314 73.1418H168.778C169.126 72.4173 169.329 71.345 169.329 69.896V57.0866H165.329C164.779 57.0866 164.373 57.1446 164.112 57.2605C163.822 57.3764 163.561 57.5793 163.301 57.8981L163.851 55C164.141 55.2898 164.721 55.4057 165.532 55.4057H175.559C176.313 55.4057 176.864 55.2898 177.211 55.029Z" fill="black"/>
<path d="M162.466 68.6789C162.466 70.0989 161.944 71.2581 160.959 72.1565C159.944 73.0549 158.611 73.4896 156.959 73.4896C156.032 73.4896 155.076 73.3157 154.119 72.91C153.308 72.6202 152.757 72.7941 152.409 73.3737V69.3454C153.453 70.9973 154.931 71.8088 156.785 71.8088C157.684 71.8088 158.437 71.5479 159.017 70.9973C159.597 70.4467 159.915 69.7222 159.915 68.8238C159.915 67.5196 159.133 66.3894 157.568 65.4041C157.278 65.2302 156.814 64.9404 156.177 64.5347C155.539 64.1289 155.133 63.8971 155.018 63.8101C153.105 62.6509 152.177 61.1439 152.177 59.3471C152.177 58.072 152.641 57.0287 153.627 56.2172C154.612 55.4348 155.8 55.029 157.22 55.029C158.205 55.029 159.104 55.2029 159.944 55.4927C160.582 55.7536 161.103 55.6666 161.451 55.2029V59.0573C160.466 57.4634 159.104 56.652 157.394 56.652C156.583 56.652 155.887 56.9128 155.365 57.4054C154.844 57.8981 154.583 58.4777 154.583 59.1733C154.583 60.1586 155.076 60.97 156.061 61.5786C156.351 61.7815 156.872 62.1293 157.655 62.593C158.437 63.0856 158.988 63.4334 159.278 63.6073C161.393 64.9404 162.466 66.6212 162.466 68.6789Z" fill="black"/>
<path d="M146.06 60.0428C146.031 59.1154 145.742 58.3909 145.162 57.8403C144.582 57.3186 143.713 57.0288 142.612 57.0288H141.366V63.0278H142.612C143.713 63.0278 144.582 62.7669 145.191 62.2163C145.771 61.6947 146.06 60.9702 146.06 60.0428ZM151.451 73.113H148.495C148.147 72.8522 147.799 72.4175 147.423 71.8379L143.133 65.3462C142.786 64.8825 142.351 64.6507 141.8 64.6507H141.366V69.7802C141.366 71.3742 141.539 72.4754 141.945 73.113H138.381C138.728 72.4754 138.931 71.3742 138.931 69.7802V58.7387C138.931 57.2896 138.728 56.1594 138.381 55.4059H143.191C144.843 55.4059 146.147 55.8116 147.075 56.6231C148.002 57.4345 148.466 58.5648 148.466 60.0138C148.466 61.202 148.147 62.1873 147.509 62.9698C146.872 63.7813 146.031 64.3029 144.959 64.5348C145.336 64.7666 145.742 65.1723 146.147 65.7519L149.654 70.9684C150.35 72.0117 150.958 72.7362 151.451 73.113Z" fill="black"/>
<path d="M133.518 64.2449C133.518 62.1583 132.852 60.3904 131.577 58.9124C130.273 57.4344 128.679 56.6809 126.824 56.6809C124.911 56.6809 123.317 57.4344 122.042 58.9124C120.738 60.3904 120.1 62.1583 120.1 64.2449C120.1 66.3314 120.738 68.0993 122.042 69.6062C123.346 71.1132 124.94 71.8377 126.824 71.8377C128.679 71.8377 130.244 71.1132 131.548 69.6062C132.852 68.0993 133.518 66.3314 133.518 64.2449ZM136.069 64.2738C136.069 66.998 135.17 69.2005 133.432 70.9393C131.664 72.6782 129.432 73.5186 126.766 73.5186C124.1 73.5186 121.897 72.6782 120.158 70.9393C118.42 69.2005 117.579 66.998 117.579 64.2738C117.579 61.6076 118.449 59.3761 120.216 57.6373C121.955 55.8985 124.187 55.029 126.853 55.029C129.519 55.029 131.722 55.8985 133.46 57.6373C135.199 59.3761 136.069 61.5786 136.069 64.2738Z" fill="black"/>
<path d="M114.113 55.4059H116.866C116.576 55.8696 115.91 57.2607 114.924 59.5211L109.07 73.2289H108.346L102.694 59.4922C101.883 57.5794 101.245 56.2174 100.811 55.4059H104.288C104.346 56.5072 104.694 57.7823 105.303 59.2313L109.128 68.8818L113.214 59.0285C113.736 57.8113 114.026 56.5941 114.113 55.4059Z" fill="black"/>
<path d="M97.6153 60.0428C97.5864 59.1154 97.2966 58.3909 96.717 57.8403C96.1373 57.3186 95.2679 57.0288 94.1667 57.0288H92.9205V63.0278H94.1667C95.2679 63.0278 96.1373 62.7669 96.7459 62.2163C97.3255 61.6947 97.6153 60.9702 97.6153 60.0428ZM103.006 73.113H100.05C99.7019 72.8522 99.3542 72.4175 98.9774 71.8379L94.6883 65.3462C94.3406 64.8825 93.9059 64.6507 93.3552 64.6507H92.9205V69.7802C92.9205 71.3742 93.0944 72.4754 93.5001 73.113H89.9355C90.2833 72.4754 90.4862 71.3742 90.4862 69.7802V58.7387C90.4862 57.2896 90.2833 56.1594 89.9355 55.4059H94.7463C96.3982 55.4059 97.7023 55.8116 98.6297 56.6231C99.557 57.4345 100.021 58.5648 100.021 60.0138C100.021 61.202 99.702 62.1873 99.0644 62.9698C98.4268 63.7813 97.5864 64.3029 96.5141 64.5348C96.8908 64.7666 97.2966 65.1723 97.7023 65.7519L101.209 70.9684C101.904 72.0117 102.513 72.7362 103.006 73.113Z" fill="black"/>
<path d="M87.7245 70.9105L87.058 73.142H77.2915C77.6683 72.6203 77.8712 71.5191 77.8712 69.8382V58.8256C77.8712 57.3766 77.6683 56.2174 77.3205 55.4059H86.9131V57.6084C86.4204 57.2317 85.6089 57.0288 84.5077 57.0288H80.2765V63.0568H84.7685C85.493 63.0568 86.1016 62.9698 86.5653 62.7669V64.9695C86.1886 64.7956 85.58 64.6797 84.7685 64.6797H80.2765V70.6207C80.2765 70.9684 80.3635 71.2293 80.5953 71.3452C80.7982 71.4611 81.1749 71.5191 81.6966 71.5191H85.1163C86.2175 71.5191 87.087 71.3162 87.7245 70.9105Z" fill="black"/>
<path d="M70.7478 64.3028H74.8341C74.5442 64.4477 74.3124 64.6216 74.1965 64.8534C74.0806 65.0853 74.0226 65.433 74.0226 65.8967V70.8814C74.0226 71.461 74.1965 71.8667 74.6022 72.0696C72.9213 73.0549 70.8058 73.5186 68.2555 73.5186C65.5603 73.5186 63.2998 72.6492 61.503 70.9104C59.7062 69.1715 58.8078 66.969 58.8078 64.2738C58.8078 61.6076 59.7062 59.3761 61.503 57.6373C63.2998 55.8985 65.5603 55.029 68.2555 55.029C69.5306 55.029 70.6609 55.1739 71.6462 55.4638C72.6895 55.7825 73.5009 55.7246 74.0226 55.2609V59.1153C72.3417 57.5504 70.458 56.7389 68.3134 56.7389C66.4007 56.7389 64.7488 57.4924 63.3867 58.9704C61.9957 60.4484 61.3291 62.2162 61.3291 64.2449C61.3291 66.3025 61.9957 68.0703 63.3867 69.5483C64.7778 71.0553 66.4007 71.7798 68.3134 71.7798C69.7045 71.7798 70.7768 71.5769 71.5882 71.1422V65.8967C71.5882 65.433 71.5303 65.0853 71.4144 64.8534C71.2984 64.6216 71.0666 64.4477 70.7478 64.3028Z" fill="black"/>
<path d="M54.3516 64.2449C54.3516 62.1583 53.685 60.3904 52.4099 58.9124C51.1058 57.4344 49.5118 56.6809 47.6571 56.6809C45.7444 56.6809 44.1504 57.4344 42.8753 58.9124C41.5712 60.3904 40.9336 62.1583 40.9336 64.2449C40.9336 66.3314 41.5712 68.0993 42.8753 69.6062C44.1794 71.1132 45.7733 71.8377 47.6571 71.8377C49.5118 71.8377 51.0768 71.1132 52.3809 69.6062C53.685 68.0993 54.3516 66.3314 54.3516 64.2449ZM56.9019 64.2738C56.9019 66.998 56.0035 69.2005 54.2646 70.9393C52.4968 72.6782 50.2653 73.5186 47.5991 73.5186C44.9329 73.5186 42.7304 72.6782 40.9916 70.9393C39.2527 69.2005 38.4123 66.998 38.4123 64.2738C38.4123 61.6076 39.2817 59.3761 41.0495 57.6373C42.7883 55.8985 45.0198 55.029 47.6861 55.029C50.3523 55.029 52.5548 55.8985 54.2936 57.6373C56.0324 59.3761 56.9019 61.5786 56.9019 64.2738Z" fill="black"/>
<path d="M33.8398 64.2449C33.8398 62.1583 33.1733 60.3904 31.8981 58.9124C30.594 57.4344 29.0001 56.6809 27.1453 56.6809C25.2326 56.6809 23.6387 57.4344 22.3636 58.9124C21.0594 60.3904 20.4219 62.1583 20.4219 64.2449C20.4219 66.3314 21.0594 68.0993 22.3636 69.6062C23.6677 71.1132 25.2616 71.8377 27.1453 71.8377C29.0001 71.8377 30.565 71.1132 31.8692 69.6062C33.1733 68.0993 33.8398 66.3314 33.8398 64.2449ZM36.3901 64.2738C36.3901 66.998 35.4917 69.2005 33.7529 70.9393C31.9851 72.6782 29.7536 73.5186 27.0874 73.5186C24.4212 73.5186 22.2187 72.6782 20.4798 70.9393C18.741 69.2005 17.9006 66.998 17.9006 64.2738C17.9006 61.6076 18.77 59.3761 20.5378 57.6373C22.2766 55.8985 24.5081 55.029 27.1743 55.029C29.8405 55.029 32.0431 55.8985 33.7819 57.6373C35.5207 59.3761 36.3901 61.5786 36.3901 64.2738Z" fill="black"/>
<path d="M15.5915 73.142H12.0269C12.3747 72.5913 12.5775 71.577 12.5775 70.07V64.6797H2.98499V70.157C2.98499 71.548 3.15888 72.5334 3.5646 73.142H0C0.376747 72.6203 0.57961 71.577 0.57961 70.07V58.8256C0.57961 57.3766 0.376747 56.2174 0.0289806 55.4059H3.53562C3.15888 56.2463 2.98499 57.3766 2.98499 58.7966V63.0568H12.5775V58.8256C12.5775 57.3766 12.4037 56.2463 12.0559 55.4059H15.5625C15.1858 56.2463 15.0119 57.3766 15.0119 58.7966V70.157C15.0119 71.577 15.1858 72.5624 15.5915 73.142Z" fill="black"/>
</svg>
