<svg width="291" height="16" viewBox="0 0 291 16" fill="none" xmlns="http://www.w3.org/2000/svg">
<path d="M69.4737 8.37618C69.4737 6.66082 68.9291 5.20752 67.8873 3.99248C66.8218 2.77743 65.5195 2.15799 64.0041 2.15799C62.4414 2.15799 61.1391 2.77743 60.0972 3.99248C59.0317 5.20752 58.5108 6.66082 58.5108 8.37618C58.5108 10.0915 59.0317 11.5448 60.0972 12.7837C61.1627 14.0226 62.465 14.6182 64.0041 14.6182C65.5195 14.6182 66.7981 14.0226 67.8636 12.7837C68.9291 11.5448 69.4737 10.0915 69.4737 8.37618ZM71.5574 8.4C71.5574 10.6395 70.8234 12.4502 69.4027 13.8796C67.9583 15.3091 66.1351 16 63.9567 16C61.7784 16 59.9788 15.3091 58.5582 13.8796C57.1375 12.4502 56.4508 10.6395 56.4508 8.4C56.4508 6.20815 57.1612 4.37367 58.6055 2.9442C60.0262 1.51473 61.8494 0.8 64.0278 0.8C66.2062 0.8 68.0057 1.51473 69.4264 2.9442C70.847 4.37367 71.5574 6.18433 71.5574 8.4Z" fill="white"/>
<path d="M54.4631 16H51.2828C51.5793 15.6131 51.741 14.7908 51.741 13.485V4.00523C51.741 2.79608 51.5793 1.85294 51.2828 1.2H54.4631C54.1397 1.78039 54.0049 2.72353 54.0049 4.00523V13.5575C54.0049 14.7667 54.1397 15.5647 54.4631 16Z" fill="white"/>
<path d="M47.6099 8.58789C47.6099 6.69853 47.0593 5.24517 45.9581 4.17938C44.8568 3.13781 43.3726 2.60491 41.5053 2.60491L39.0395 2.58069V13.4566C39.0395 13.9169 39.2071 14.2318 39.5662 14.3771C39.9253 14.5466 40.5717 14.6193 41.5053 14.6193C43.4683 14.6193 44.9765 14.1106 46.0299 13.0933C47.0832 12.0759 47.6099 10.5741 47.6099 8.58789ZM49.6926 8.58789C49.6926 11.0101 48.9984 12.8511 47.6338 14.1106C46.2453 15.3702 44.3062 16 41.8165 16H36.5738C36.861 15.4671 37.0286 14.5466 37.0286 13.2144V3.9856C37.0286 2.77447 36.861 1.82979 36.5738 1.2H41.7686C44.2344 1.2 46.1735 1.87823 47.5859 3.2347C48.9744 4.59116 49.6926 6.38363 49.6926 8.58789Z" fill="white"/>
<path d="M34.1885 15.7387H31.7845V14.4559C30.6875 15.5011 29.3104 16 27.6532 16C26.0194 16 24.7356 15.5249 23.7553 14.5509C22.775 13.5769 22.3082 12.2465 22.3082 10.5836V4.00321C22.3082 2.81541 22.1448 1.88892 21.8648 1.2H24.6423C24.3855 1.91268 24.2688 2.86292 24.2688 4.05072V10.3698C24.2688 13.2205 25.5059 14.6222 28.0266 14.6222C29.5671 14.6222 30.8275 13.9807 31.7845 12.6979V4.00321C31.7845 2.81541 31.6211 1.88892 31.341 1.2H34.1652C33.8618 1.86517 33.7217 2.79165 33.7217 3.97945V13.2918C33.7217 14.4321 33.8618 15.2636 34.1885 15.7387Z" fill="white"/>
<path d="M20.1951 0.824281L20.6721 3.22811C20.2428 2.79105 19.6942 2.54824 19.0025 2.54824H15.7108V13.2562C15.7108 14.5431 15.8539 15.4658 16.164 16H13.254C13.5402 15.393 13.7072 14.4946 13.7072 13.2805V2.54824H10.4156C9.96238 2.54824 9.62844 2.59681 9.41377 2.69393C9.17525 2.79105 8.96057 2.96102 8.7459 3.22811L9.1991 0.8C9.43762 1.04281 9.91467 1.13994 10.5825 1.13994H18.8355C19.4557 1.13994 19.9089 1.04281 20.1951 0.824281Z" fill="white"/>
<path d="M8.34836 12.0389C8.34836 13.2082 7.92506 14.1626 7.1255 14.9024C6.30242 15.6421 5.22067 16 3.88022 16C3.1277 16 2.35165 15.8568 1.57561 15.5228C0.917144 15.2841 0.47033 15.4273 0.188132 15.9046V12.5878C1.03473 13.9479 2.23407 14.616 3.73913 14.616C4.46814 14.616 5.07957 14.4013 5.5499 13.9479C6.02023 13.4945 6.27891 12.898 6.27891 12.1582C6.27891 11.0845 5.64396 10.1538 4.37407 9.34254C4.13891 9.19937 3.76264 8.96075 3.24528 8.62669C2.72792 8.29262 2.39868 8.10173 2.30462 8.03014C0.752528 7.07567 0 5.83485 0 4.35542C0 3.30549 0.376264 2.44647 1.17583 1.77834C1.97539 1.13407 2.93956 0.8 4.09187 0.8C4.89143 0.8 5.62045 0.943171 6.30243 1.18179C6.81979 1.39655 7.24308 1.32496 7.52528 0.943171V4.1168C6.72572 2.8044 5.62045 2.13626 4.23297 2.13626C3.57451 2.13626 3.01011 2.35102 2.58682 2.75667C2.16352 3.16232 1.95187 3.63956 1.95187 4.21224C1.95187 5.02355 2.35165 5.69168 3.15121 6.19278C3.38638 6.35981 3.80967 6.64615 4.44462 7.02794C5.07957 7.43359 5.52638 7.71994 5.76155 7.86311C7.47825 8.96075 8.34836 10.3447 8.34836 12.0389Z" fill="white"/>
<path d="M132.381 13.7379L131.822 15.6H123.635C123.951 15.1647 124.121 14.2458 124.121 12.8431V3.65359C124.121 2.44444 123.951 1.47712 123.66 0.8H131.701V2.63791C131.288 2.32353 130.608 2.15425 129.684 2.15425H126.138V7.18431H129.903C130.51 7.18431 131.021 7.11176 131.409 6.94248V8.78039C131.094 8.63529 130.583 8.53856 129.903 8.53856H126.138V13.4961C126.138 13.7863 126.21 14.0039 126.405 14.1007C126.575 14.1974 126.891 14.2458 127.328 14.2458H130.195C131.118 14.2458 131.847 14.0765 132.381 13.7379Z" fill="white"/>
<path d="M122.045 11.9347C122.045 13.1347 121.622 14.1143 120.822 14.8735C119.999 15.6327 118.917 16 117.577 16C116.824 16 116.048 15.8531 115.272 15.5102C114.614 15.2653 114.167 15.4122 113.885 15.902V12.498C114.731 13.8939 115.931 14.5796 117.436 14.5796C118.165 14.5796 118.776 14.3592 119.247 13.8939C119.717 13.4286 119.976 12.8163 119.976 12.0571C119.976 10.9551 119.341 10 118.071 9.16735C117.836 9.02041 117.459 8.77551 116.942 8.43265C116.425 8.0898 116.095 7.89388 116.001 7.82041C114.449 6.84082 113.697 5.56735 113.697 4.04898C113.697 2.97143 114.073 2.0898 114.873 1.40408C115.672 0.742857 116.636 0.4 117.789 0.4C118.588 0.4 119.317 0.546938 119.999 0.791836C120.517 1.01224 120.94 0.938774 121.222 0.546938V3.80408C120.422 2.45714 119.317 1.77143 117.93 1.77143C117.271 1.77143 116.707 1.99184 116.284 2.40816C115.86 2.82449 115.649 3.31429 115.649 3.90204C115.649 4.73469 116.048 5.42041 116.848 5.93469C117.083 6.10612 117.506 6.4 118.141 6.79184C118.776 7.20816 119.223 7.50204 119.458 7.64898C121.175 8.77551 122.045 10.1959 122.045 11.9347Z" fill="white"/>
<path d="M109.446 0.8H111.709C111.399 1.50131 111.256 2.44444 111.256 3.62941V15.6H110.542L100.749 3.96797V13.1092C100.749 14.2699 100.892 15.0922 101.226 15.6H98.9149C99.2246 15.1647 99.3914 14.2941 99.3914 13.0366V2.34771C99.2722 2.25098 99.1293 2.0817 98.9863 1.83987C98.7004 1.47712 98.2954 1.13856 97.7951 0.824184H100.726L109.874 11.7065V3.6536C109.874 2.44444 109.732 1.50131 109.446 0.8Z" fill="white"/>
<path d="M96.6025 15.6H93.8197C94.0791 15.2131 94.2206 14.3908 94.2206 13.085V3.60523C94.2206 2.39608 94.0791 1.45294 93.8197 0.8H96.6025C96.3195 1.38039 96.2016 2.32353 96.2016 3.60523V13.1575C96.2016 14.3667 96.3195 15.1647 96.6025 15.6Z" fill="white"/>
<path d="M92.627 13.6654L92.072 15.6H84.2787C84.5793 15.1647 84.7412 14.2458 84.7412 12.8431V3.65359C84.7412 2.44444 84.5793 1.47712 84.3018 0.8H87.1C86.7994 1.45294 86.6606 2.39608 86.6606 3.62941V13.351C86.6606 13.7137 86.73 13.9314 86.8919 14.0281C87.0306 14.1248 87.3313 14.1732 87.7938 14.1732H90.5226C91.4476 14.1732 92.1414 14.0039 92.627 13.6654Z" fill="white"/>
<path d="M290.523 0.0242809L291 2.42811C290.571 1.99105 290.022 1.74824 289.33 1.74824H286.039V12.4562C286.039 13.7431 286.182 14.6658 286.492 15.2H283.582C283.868 14.593 284.035 13.6946 284.035 12.4805V1.74824H280.743C280.29 1.74824 279.956 1.79681 279.742 1.89393C279.503 1.99105 279.288 2.16102 279.074 2.42811L279.527 0C279.765 0.242811 280.243 0.339936 280.91 0.339936H289.163C289.784 0.339936 290.237 0.242811 290.523 0.0242809Z" fill="white"/>
<path d="M278.279 11.2389C278.279 12.4082 277.855 13.3626 277.056 14.1024C276.233 14.8421 275.151 15.2 273.811 15.2C273.058 15.2 272.282 15.0568 271.506 14.7228C270.847 14.4841 270.401 14.6273 270.118 15.1046V11.7878C270.965 13.1479 272.164 13.816 273.669 13.816C274.398 13.816 275.01 13.6013 275.48 13.1479C275.951 12.6945 276.209 12.098 276.209 11.3582C276.209 10.2845 275.574 9.35385 274.304 8.54254C274.069 8.39937 273.693 8.16075 273.176 7.82669C272.658 7.49262 272.329 7.30173 272.235 7.23014C270.683 6.27567 269.93 5.03485 269.93 3.55542C269.93 2.50549 270.307 1.64647 271.106 0.978336C271.906 0.334066 272.87 0 274.022 0C274.822 0 275.551 0.143171 276.233 0.381789C276.75 0.596546 277.173 0.52496 277.456 0.143171V3.3168C276.656 2.0044 275.551 1.33626 274.163 1.33626C273.505 1.33626 272.94 1.55102 272.517 1.95667C272.094 2.36232 271.882 2.83956 271.882 3.41224C271.882 4.22355 272.282 4.89168 273.082 5.39278C273.317 5.55981 273.74 5.84615 274.375 6.22794C275.01 6.63359 275.457 6.91994 275.692 7.06311C277.409 8.16075 278.279 9.54474 278.279 11.2389Z" fill="white"/>
<path d="M265.106 4.27561C265.082 3.50049 264.844 2.89493 264.368 2.4347C263.892 1.99869 263.178 1.75646 262.274 1.75646H261.251V6.77054H262.274C263.178 6.77054 263.892 6.55254 264.392 6.09231C264.868 5.6563 265.106 5.05074 265.106 4.27561ZM269.533 15.2H267.105C266.82 14.982 266.534 14.6187 266.225 14.1342L262.702 8.70835C262.417 8.32079 262.06 8.127 261.608 8.127H261.251V12.4144C261.251 13.7466 261.393 14.6671 261.727 15.2H258.799C259.085 14.6671 259.251 13.7466 259.251 12.4144V3.1856C259.251 1.97447 259.085 1.02979 258.799 0.4H262.75C264.106 0.4 265.177 0.739116 265.939 1.41735C266.701 2.09558 267.081 3.04026 267.081 4.25139C267.081 5.24452 266.82 6.06808 266.296 6.72209C265.772 7.40033 265.082 7.83633 264.202 8.03011C264.511 8.22389 264.844 8.56301 265.177 9.04746L268.057 13.4075C268.628 14.2795 269.128 14.8851 269.533 15.2Z" fill="white"/>
<path d="M254.728 7.97618C254.728 6.26082 254.183 4.80752 253.141 3.59248C252.076 2.37743 250.774 1.75799 249.258 1.75799C247.695 1.75799 246.393 2.37743 245.351 3.59248C244.286 4.80752 243.765 6.26082 243.765 7.97618C243.765 9.69154 244.286 11.1448 245.351 12.3837C246.417 13.6226 247.719 14.2182 249.258 14.2182C250.774 14.2182 252.052 13.6226 253.118 12.3837C254.183 11.1448 254.728 9.69154 254.728 7.97618ZM256.811 8C256.811 10.2395 256.077 12.0502 254.657 13.4796C253.212 14.9091 251.389 15.6 249.211 15.6C247.032 15.6 245.233 14.9091 243.812 13.4796C242.392 12.0502 241.705 10.2395 241.705 8C241.705 5.80815 242.415 3.97367 243.86 2.5442C245.28 1.11473 247.104 0.4 249.282 0.4C251.46 0.4 253.26 1.11473 254.68 2.5442C256.101 3.97367 256.811 5.78433 256.811 8Z" fill="white"/>
<path d="M238.66 0.8H240.91C240.673 1.17463 240.128 2.29854 239.323 4.12488L234.54 15.2H233.948L229.33 4.10146C228.667 2.5561 228.146 1.45561 227.791 0.8H230.633C230.68 1.68976 230.964 2.72 231.461 3.89073L234.587 11.6878L237.926 3.72683C238.352 2.74341 238.589 1.76 238.66 0.8Z" fill="white"/>
<path d="M224.954 4.57087C224.931 3.81669 224.693 3.2275 224.217 2.77971C223.741 2.35548 223.027 2.1198 222.122 2.1198H221.099V6.99836H222.122C223.027 6.99836 223.741 6.78625 224.24 6.33846C224.716 5.91424 224.954 5.32504 224.954 4.57087ZM229.381 15.2H226.954C226.668 14.9879 226.382 14.6344 226.073 14.163L222.551 8.8838C222.265 8.50671 221.908 8.31817 221.456 8.31817H221.099V12.4897C221.099 13.7859 221.242 14.6815 221.575 15.2H218.648C218.933 14.6815 219.1 13.7859 219.1 12.4897V3.51031C219.1 2.33192 218.933 1.41277 218.648 0.8H222.598C223.955 0.8 225.026 1.12995 225.787 1.78985C226.549 2.44975 226.93 3.3689 226.93 4.5473C226.93 5.51358 226.668 6.31489 226.144 6.95123C225.621 7.61113 224.931 8.03535 224.05 8.22389C224.359 8.41244 224.693 8.74239 225.026 9.21375L227.906 13.456C228.477 14.3044 228.977 14.8936 229.381 15.2Z" fill="white"/>
<path d="M217.057 13.3882L216.499 15.2H208.311C208.627 14.7765 208.797 13.8824 208.797 12.5176V3.57647C208.797 2.4 208.627 1.45882 208.336 0.8H216.377V2.58823C215.964 2.28235 215.284 2.11765 214.361 2.11765H210.814V7.01176H214.579C215.187 7.01176 215.697 6.94118 216.086 6.77647V8.56471C215.77 8.42353 215.26 8.32941 214.579 8.32941H210.814V13.1529C210.814 13.4353 210.887 13.6471 211.081 13.7412C211.251 13.8353 211.567 13.8824 212.004 13.8824H214.871C215.794 13.8824 216.523 13.7176 217.057 13.3882Z" fill="white"/>
<path d="M202.979 8.02383H206.324C206.087 8.14295 205.897 8.28589 205.802 8.47649C205.707 8.66708 205.66 8.95298 205.66 9.33417V13.432C205.66 13.9085 205.802 14.242 206.134 14.4088C204.758 15.2188 203.026 15.6 200.939 15.6C198.732 15.6 196.882 14.8853 195.411 13.4558C193.94 12.0263 193.205 10.2157 193.205 8C193.205 5.80815 193.94 3.97367 195.411 2.5442C196.882 1.11473 198.732 0.4 200.939 0.4C201.982 0.4 202.908 0.519122 203.714 0.757366C204.568 1.01943 205.233 0.971787 205.66 0.590595V3.75925C204.284 2.47273 202.742 1.80564 200.986 1.80564C199.42 1.80564 198.068 2.42508 196.953 3.64012C195.814 4.85517 195.269 6.30846 195.269 7.97618C195.269 9.66771 195.814 11.121 196.953 12.3361C198.092 13.5749 199.42 14.1705 200.986 14.1705C202.125 14.1705 203.003 14.0038 203.667 13.6464V9.33417C203.667 8.95298 203.619 8.66708 203.524 8.47649C203.43 8.28589 203.24 8.14295 202.979 8.02383Z" fill="white"/>
<path d="M189.531 7.97618C189.531 6.26082 188.986 4.80752 187.945 3.59248C186.879 2.37743 185.577 1.75799 184.061 1.75799C182.499 1.75799 181.196 2.37743 180.155 3.59248C179.089 4.80752 178.568 6.26082 178.568 7.97618C178.568 9.69154 179.089 11.1448 180.155 12.3837C181.22 13.6226 182.522 14.2182 184.061 14.2182C185.577 14.2182 186.855 13.6226 187.921 12.3837C188.986 11.1448 189.531 9.69154 189.531 7.97618ZM191.615 8C191.615 10.2395 190.881 12.0502 189.46 13.4796C188.016 14.9091 186.192 15.6 184.014 15.6C181.836 15.6 180.036 14.9091 178.616 13.4796C177.195 12.0502 176.508 10.2395 176.508 8C176.508 5.80815 177.219 3.97367 178.663 2.5442C180.084 1.11473 181.907 0.4 184.085 0.4C186.264 0.4 188.063 1.11473 189.484 2.5442C190.904 3.97367 191.615 5.78433 191.615 8Z" fill="white"/>
<path d="M172.834 7.97618C172.834 6.26082 172.29 4.80752 171.248 3.59248C170.182 2.37743 168.88 1.75799 167.365 1.75799C165.802 1.75799 164.5 2.37743 163.458 3.59248C162.392 4.80752 161.871 6.26082 161.871 7.97618C161.871 9.69154 162.392 11.1448 163.458 12.3837C164.523 13.6226 165.826 14.2182 167.365 14.2182C168.88 14.2182 170.159 13.6226 171.224 12.3837C172.29 11.1448 172.834 9.69154 172.834 7.97618ZM174.918 8C174.918 10.2395 174.184 12.0502 172.763 13.4796C171.319 14.9091 169.496 15.6 167.317 15.6C165.139 15.6 163.339 14.9091 161.919 13.4796C160.498 12.0502 159.811 10.2395 159.811 8C159.811 5.80815 160.522 3.97367 161.966 2.5442C163.387 1.11473 165.21 0.4 167.388 0.4C169.567 0.4 171.366 1.11473 172.787 2.5442C174.208 3.97367 174.918 5.78433 174.918 8Z" fill="white"/>
<path d="M157.824 14.8H154.915C155.199 14.3529 155.365 13.5294 155.365 12.3059V7.92941H147.538V12.3765C147.538 13.5059 147.68 14.3059 148.011 14.8H145.102C145.41 14.3765 145.575 13.5294 145.575 12.3059V3.17647C145.575 2 145.41 1.05882 145.126 0.4H147.987C147.68 1.08235 147.538 2 147.538 3.15294V6.61176H155.365V3.17647C155.365 2 155.223 1.08235 154.939 0.4H157.8C157.493 1.08235 157.351 2 157.351 3.15294V12.3765C157.351 13.5294 157.493 14.3294 157.824 14.8Z" fill="white"/>
</svg>
